<svg id="Capa_1" enable-background="new 0 0 510.679 510.679" height="512" viewBox="0 0 510.679 510.679" width="512" xmlns="http://www.w3.org/2000/svg"><g><g><path d="m272.035 144.671h30.001v114.785h-30.001z" fill="#fff5f5" transform="matrix(.912 -.41 .41 .912 -57.622 135.503)"/></g><g><path d="m229.643 293.615h114.785v30.001h-114.785z" fill="#ebe1dc" transform="matrix(.41 -.912 .912 .41 -112.155 443.82)"/></g><g><path d="m202.072 144.671h30.001v114.785h-30.001z" fill="#fff5f5" transform="matrix(.912 -.41 .41 .912 -63.778 106.81)"/></g><g><path d="m159.68 293.615h114.785v30.001h-114.785z" fill="#ebe1dc" transform="matrix(.41 -.912 .912 .41 -153.422 380.013)"/></g><g><path d="m137.208 164.396h29.999v94.016h-29.999z" fill="#fff5f5" transform="matrix(.918 -.396 .396 .918 -71.273 77.557)"/></g><g><path d="m105.2 284.274h94.016v29.999h-94.016z" fill="#ebe1dc" transform="matrix(.396 -.918 .918 .396 -182.875 320.525)"/></g><g><path d="m75.295 239.845h297.384v30h-297.384z" fill="#ebe1dc"/></g><g><path d="m75.295 254.845h297.384v15h-297.384z" fill="#c8beb9"/></g><path d="m366.93 349.367 127.06-66.878c22.252-11.712 22.252-43.575 0-55.287l-127.06-66.878z" fill="#fff5f5"/><path d="m366.93 349.367 127.06-66.878c11.126-5.856 16.689-16.75 16.689-27.644h-143.749z" fill="#ebe1dc"/><path d="m84.974 243.386-65.617-55.421-19.357 22.919 52.634 44.455-52.634 44.456 19.357 22.919 65.617-55.421z" fill="#fff5f5"/><path d="m52.049 254.845.585.494-52.634 44.456 19.357 22.919 65.617-55.421v-12.448z" fill="#ebe1dc"/></g></svg>