<svg viewBox="-95 0 512 512" xmlns="http://www.w3.org/2000/svg"><path d="m247.5 67.5v-60l75 30zm0 0" fill="#ff4128"/><path d="m97.5 185c-45.492188 0-82.5-37.007812-82.5-82.5 0-4.140625-3.359375-7.5-7.5-7.5s-7.5 3.359375-7.5 7.5c0 53.761719 43.738281 97.5 97.5 97.5h45v-15zm0 0" fill="#dbf4ff"/><path d="m262.5 185h-120v15h120c4.136719 0 7.5 3.363281 7.5 7.5h15c0-12.40625-10.09375-22.5-22.5-22.5zm0 0" fill="#a8e5ff"/><path d="m247.5 512c-4.144531 0-7.5-3.359375-7.5-7.5v-497c0-4.140625 3.355469-7.5 7.5-7.5s7.5 3.359375 7.5 7.5v497c0 4.140625-3.355469 7.5-7.5 7.5zm0 0" fill="#ebebeb"/><path d="m105 292.5v196.59375l-24.871094 8.289062c-3.929687 1.308594-6.050781 5.554688-4.742187 9.484376 1.308593 3.933593 5.558593 6.054687 9.484375 4.746093l30-10c3.0625-1.019531 5.128906-3.886719 5.128906-7.117187v-201.996094zm0 0" fill="#ffb4a9"/><path d="m180 292.5v196.59375l24.871094 8.289062c3.929687 1.308594 6.050781 5.554688 4.742187 9.484376-1.308593 3.933593-5.558593 6.054687-9.484375 4.746093l-30-10c-3.0625-1.019531-5.128906-3.886719-5.128906-7.117187v-201.996094zm0 0" fill="#ff8d7e"/><path d="m262.5 230h-15c-4.140625 0-7.5-3.359375-7.5-7.5s3.359375-7.5 7.5-7.5h15c4.136719 0 7.5-3.363281 7.5-7.5 0-4.140625 3.359375-7.5 7.5-7.5s7.5 3.359375 7.5 7.5c0 12.40625-10.09375 22.5-22.5 22.5zm0 0" fill="#a8e5ff"/><path d="m167.5 172.5h-17.5l-22.5 60 15 60h45v-100c0-11.046875-8.953125-20-20-20zm0 0" fill="#a8e5ff"/><path d="m117.5 172.5c-11.046875 0-20 8.953125-20 20v100h45v-110l-7.5-10zm0 0" fill="#dbf4ff"/><path d="m135 172.5v30c0 4.140625 3.359375 7.5 7.5 7.5s7.5-3.359375 7.5-7.5v-30zm0 0" fill="#7dd9ff"/><path d="m187.5 262.5h-30l15 90h30v-50.335938c0-15.210937-5.671875-29.089843-15-39.664062zm0 0" fill="#ff4128"/><path d="m157.5 262.5h-60c-9.328125 10.574219-15 24.453125-15 39.664062v50.335938h90v-50.335938c0-15.210937-5.671875-29.089843-15-39.664062zm0 0" fill="#ff6753"/><path d="m307.5 489.5c0 8.285156-6.714844 15-15 15s-15-6.714844-15-15 6.714844-15 15-15 15 6.714844 15 15zm0 0" fill="#ffe2a8"/><path d="m117.5 117.5c0 13.808594-11.191406 25-25 25s-25-11.191406-25-25 11.191406-25 25-25 25 11.191406 25 25zm0 0" fill="#ffe2a8"/><path d="m142.5 7.5-30 90h75v-45c0-24.851562-20.148438-45-45-45zm0 0" fill="#cf301b"/><path d="m142.5 7.5c-24.851562 0-45 20.148438-45 45v45h45zm0 0" fill="#ff4128"/><path d="m142.5 52.5v90c24.851562 0 45-20.148438 45-45s-20.148438-45-45-45zm0 0" fill="#ff8d7e"/><path d="m157.5 97.5c0-24.851562-6.714844-45-15-45-24.851562 0-45 20.148438-45 45s20.148438 45 45 45c8.285156 0 15-20.148438 15-45zm0 0" fill="#ffb4a9"/></svg>