<svg viewBox="-84 0 512 512.00001" xmlns="http://www.w3.org/2000/svg"><path d="m237.984375 289.238281v199.511719l25.242187 8.414062c3.988282 1.332032 6.140626 5.640626 4.8125 9.628907-1.328124 3.988281-5.640624 6.144531-9.625 4.8125l-30.445312-10.148438c-3.109375-1.035156-5.203125-3.941406-5.203125-7.21875v-205zm0 0" fill="#e18f4e"/><path d="m215.152344 235.957031v-15.222656c54.558594 0 98.949218-44.390625 98.949218-98.949219h15.222657c0 62.953125-51.21875 114.171875-114.171875 114.171875zm0 0" fill="#ffe2a8"/><path d="m336.9375 114.171875h-321.714844v15.222656h321.714844c4.203125 0 7.609375-3.40625 7.609375-7.609375s-3.40625-7.613281-7.609375-7.613281zm0 0" fill="#b3b3b3"/><path d="m199.929688 0-30.445313 91.339844h76.113281v-45.671875c0-25.222657-20.445312-45.667969-45.667968-45.667969zm0 0" fill="#ffcb63"/><path d="m199.929688 0c-25.222657 0-45.671876 20.445312-45.671876 45.667969v45.671875h45.671876zm0 0" fill="#ffe2a8"/><path d="m199.929688 45.667969v91.339843c25.222656 0 45.667968-20.449218 45.667968-45.667968 0-25.222656-20.445312-45.671875-45.667968-45.671875zm0 0" fill="#c27749"/><path d="m215.152344 91.339844c0-25.222656-6.816406-45.671875-15.222656-45.671875-25.222657 0-45.671876 20.449219-45.671876 45.671875 0 25.21875 20.449219 45.667968 45.671876 45.667968 8.40625 0 15.222656-20.449218 15.222656-45.667968zm0 0" fill="#e18f4e"/><path d="m161.871094 296.847656v106.78125l-44.375 66.070313c-.84375 1.253906-1.292969 2.730469-1.292969 4.242187v30.445313c0 4.207031 3.40625 7.613281 7.609375 7.613281s7.613281-3.40625 7.613281-7.613281v-28.125l44.375-66.070313c.84375-1.253906 1.292969-2.734375 1.292969-4.246094v-109.097656zm0 0" fill="#e18f4e"/><path d="m184.707031 258.789062 30.445313 73.507813v57.410156c0 8.410157 6.816406 15.222657 15.222656 15.222657s15.222656-6.8125 15.222656-15.222657v-100.46875zm0 0" fill="#ffa754"/><path d="m154.257812 289.238281v100.46875c0 8.410157 6.816407 15.222657 15.226563 15.222657 8.40625 0 15.222656-6.8125 15.222656-15.222657v-57.410156c4.761719 1.683594 9.882813 2.609375 15.222657 2.609375 5.339843 0 10.460937-.925781 15.222656-2.609375v-73.507813zm0 0" fill="#ffcb63"/><path d="m225.300781 167.453125h-30.445312l20.296875 121.785156h30.445312v-101.488281c0-11.207031-9.085937-20.296875-20.296875-20.296875zm0 0" fill="#ffe2a8"/><path d="m194.855469 167.453125h-20.296875c-11.210938 0-20.300782 9.085937-20.300782 20.296875v101.488281h60.894532v-101.488281c0-11.207031-9.085938-20.296875-20.296875-20.296875zm0 0" fill="#fff0d3"/><path d="m215.152344 205.511719h-30.445313c-4.203125 0-7.613281-3.410157-7.613281-7.613281 0-4.203126 3.410156-7.609376 7.613281-7.609376h30.445313c37.773437 0 68.503906-30.730468 68.503906-68.503906 0-4.203125 3.40625-7.613281 7.609375-7.613281s7.613281 3.410156 7.613281 7.613281c0 46.167969-37.558594 83.726563-83.726562 83.726563zm0 0" fill="#fff0d3"/><path d="m30.445312 91.339844v30.445312c0 8.40625-6.816406 15.222656-15.222656 15.222656s-15.222656-6.816406-15.222656-15.222656v-30.445312c0-8.410156 6.816406-15.226563 15.222656-15.226563s15.222656 6.816407 15.222656 15.226563zm0 0" fill="#ccc"/></svg>