<svg height="512pt" viewBox="0 -72 512 512" width="512pt" xmlns="http://www.w3.org/2000/svg"><path d="m469.195312 368.363281h-426.390624c-23.640626 0-42.804688-19.160156-42.804688-42.800781v-122.074219h512v122.074219c0 23.640625-19.164062 42.800781-42.804688 42.800781zm0 0" fill="#b2785b"/><path d="m91.046875 286.027344h-91.046875v39.535156c0 .992188.0390625 1.972656.105469 2.949219h90.941406c11.734375 0 21.242187-9.511719 21.242187-21.242188 0-11.734375-9.507812-21.242187-21.242187-21.242187zm0 0" fill="#935b45"/><path d="m512 325.5625v-122.074219h-308.214844v122.074219c0 23.640625 19.164063 42.800781 42.800782 42.800781h222.609374c23.640626 0 42.804688-19.160156 42.804688-42.800781zm0 0" fill="#acabb1"/><path d="m52.34375 325.5625v-122.074219h-52.34375v122.074219c0 23.640625 19.164062 42.800781 42.804688 42.800781h52.335937c-23.636719 0-42.796875-19.164062-42.796875-42.800781zm0 0" fill="#acabb1"/><path d="m298.804688 368.363281h170.390624c23.640626 0 42.804688-19.164062 42.804688-42.800781v-122.074219h-256v122.074219c0 23.640625 19.164062 42.800781 42.804688 42.800781zm0 0" fill="#c68d6d"/><path d="m384 7.574219h-256c-70.691406 0-128 57.304687-128 128v110.113281h384zm0 0" fill="#c68d6d"/><path d="m143.355469 73.160156c11.730469 0 21.242187-9.511718 21.242187-21.242187 0-11.734375-9.511718-21.242188-21.242187-21.242188h-88.726563c-15.785156 11.058594-28.953125 25.589844-38.40625 42.484375zm0 0" fill="#b2785b"/><path d="m192 7.574219s-23.097656-7.574219-66.679688-7.574219c-70.691406 0-125.320312 64.878906-125.320312 135.574219v110.113281h52.21875v-110.113281c0-62.695313 43.78125-128 139.78125-128zm0 0" fill="#c6c5ca"/><path d="m384 245.6875v-238.113281c-35.292969-17.039063-95.441406 0-95.441406 0-57.011719 17.875-84.773438 77.992187-84.773438 128v110.113281zm0 0" fill="#c6c5ca"/><path d="m512 245.6875h-256v-110.113281c0-70.691407 57.308594-128 128-128s128 57.308593 128 128zm0 0" fill="#dd9f80"/><path d="m362.757812 148.964844c11.734376 0 21.242188-9.507813 21.242188-21.242188 0-11.730468-9.507812-21.242187-21.242188-21.242187h-103.4375c-2.167968 9.347656-3.320312 19.085937-3.320312 29.09375v13.390625zm0 0" fill="#c68d6d"/><path d="m428.871094 286.027344c-11.730469 0-21.242188 9.507812-21.242188 21.242187 0 11.730469 9.511719 21.242188 21.242188 21.242188h83.027344c.066406-.976563.101562-1.957031.101562-2.949219v-39.535156zm0 0" fill="#b2785b"/><path d="m136.117188 148.964844h-16.230469c-11.730469 0-21.242188-9.507813-21.242188-21.242188 0-11.730468 9.507813-21.242187 21.242188-21.242187h16.230469c11.730468 0 21.242187 9.511719 21.242187 21.242187-.003906 11.734375-9.511719 21.242188-21.242187 21.242188zm0 0" fill="#b2785b"/><g fill="#c68d6d"><path d="m457.371094 30.675781h-71.335938c-11.734375 0-21.242187 9.507813-21.242187 21.242188 0 11.730469 9.507812 21.242187 21.242187 21.242187h109.742188c-9.453125-16.894531-22.621094-31.425781-38.40625-42.484375zm0 0"/><path d="m256 224.773438h57.050781c11.734375 0 21.242188-9.507813 21.242188-21.242188 0-11.730469-9.507813-21.242188-21.242188-21.242188h-57.050781zm0 0"/><path d="m456.726562 127.722656c0 11.734375-9.511718 21.242188-21.242187 21.242188-11.734375 0-21.242187-9.507813-21.242187-21.242188 0-11.730468 9.507812-21.242187 21.242187-21.242187 11.730469 0 21.242187 9.511719 21.242187 21.242187zm0 0"/></g><path d="m162.417969 245.6875h-68.835938v-36.492188c0-19.007812 15.410157-34.417968 34.417969-34.417968s34.417969 15.410156 34.417969 34.417968zm0 0" fill="#eaeaea"/><path d="m315.183594 328.511719h27.082031c11.761719 0 21.292969-9.535157 21.292969-21.292969s-9.53125-21.289062-21.292969-21.289062h-27.082031c-11.757813 0-21.292969 9.53125-21.292969 21.289062s9.53125 21.292969 21.292969 21.292969zm0 0" fill="#b2785b"/><path d="m128 230.71875c-4.359375 0-7.890625-3.53125-7.890625-7.890625v-18.511719c0-4.359375 3.53125-7.890625 7.890625-7.890625s7.890625 3.53125 7.890625 7.890625v18.511719c0 4.359375-3.53125 7.890625-7.890625 7.890625zm0 0" fill="#898890"/></svg>