<svg height="464pt" viewBox="-88 0 464 464" width="464pt" xmlns="http://www.w3.org/2000/svg"><path d="m56 208h-40v-16h-16v48h16v-16h40zm0 0" fill="#d6d6d4"/><path d="m96 192h96v48h-96zm0 0" fill="#3d4d63"/><path d="m48 64h48v176h-48zm0 0" fill="#ffb531"/><path d="m48 96h192c17.671875 0 32 14.328125 32 32s-14.328125 32-32 32h-192zm0 0" fill="#f7a116"/><path d="m112 128c0-17.671875-10.742188-32-24-32h-40v64h40c13.257812 0 24-14.328125 24-32zm0 0" fill="#3d4d63"/><path d="m80 128c0 17.671875-14.328125 32-32 32s-32-14.328125-32-32 14.328125-32 32-32 32 14.328125 32 32zm0 0" fill="#60d1e0"/><path d="m56 64v-48c0-8.835938 7.164062-16 16-16h144c8.835938 0 16 7.164062 16 16v48h-32v-32h-112v32zm0 0" fill="#d6d6d4"/><path d="m192 64h48v176h-48zm0 0" fill="#ffb531"/><path d="m64 240h160v32h-160zm0 0" fill="#ffb531"/><path d="m152 240h-120l16-48h120zm0 0" fill="#348fd9"/><path d="m88 272h112v32h-112zm0 0" fill="#f7a116"/><path d="m248 208c0 8.835938-7.164062 16-16 16s-16-7.164062-16-16 7.164062-16 16-16 16 7.164062 16 16zm0 0" fill="#3d4d63"/><path d="m48 304h192v32h-192zm0 0" fill="#ffb531"/><g fill="#d6d6d4"><path d="m120 336h48v128h-48zm0 0"/><path d="m48 464h-48l48-128h48zm0 0"/><path d="m240 464h48l-48-128h-48zm0 0"/></g><path d="m40 128c.027344-13.015625 7.933594-24.71875 20-29.601562-13.371094-5.460938-28.746094-1.285157-37.519531 10.1875-8.773438 11.472656-8.773438 27.402343 0 38.875 8.773437 11.476562 24.148437 15.648437 37.519531 10.1875-12.082031-4.886719-19.992188-16.613282-20-29.648438zm0 0" fill="#348fd9"/><path d="m120 336h48v16h-48zm0 0" fill="#ccccca"/><path d="m48 336-6 16h48l6-16zm0 0" fill="#ccccca"/><path d="m240 336h-48l6 16h48zm0 0" fill="#ccccca"/><path d="m192 240h32v16h-32zm0 0" fill="#f7a116"/><path d="m72 240h80l16-48h-24zm0 0" fill="#3086cd"/></svg>